<?xml version="1.0" standalone="no"?>
<!DOCTYPE svg PUBLIC "-//W3C//DTD SVG 20010904//EN"
 "http://www.w3.org/TR/2001/REC-SVG-20010904/DTD/svg10.dtd">
<svg version="1.0" xmlns="http://www.w3.org/2000/svg"
 width="1500.000000pt" height="263.000000pt" viewBox="0 0 1500.000000 263.000000"
 preserveAspectRatio="xMidYMid meet">

<g transform="translate(0.000000,263.000000) scale(0.100000,-0.100000)"
fill="#000000" stroke="none">
<path d="M9425 2218 c-4 -14 -275 -1558 -275 -1570 0 -5 43 -8 95 -8 52 0 95
1 95 3 0 12 90 511 93 513 2 2 57 -113 123 -256 l119 -260 113 0 c61 0 112 2
112 5 0 3 -62 128 -137 279 l-137 274 149 157 c83 86 185 194 228 241 l79 84
-114 0 -113 0 -190 -216 c-104 -118 -196 -223 -202 -231 -7 -9 -15 -15 -17
-12 -2 2 36 229 85 504 49 275 89 501 89 503 0 1 -43 2 -95 2 -68 0 -97 -4
-100 -12z"/>
<path d="M2684 2149 c-177 -16 -338 -95 -471 -231 -81 -81 -114 -128 -162
-224 -69 -138 -93 -237 -98 -409 -4 -112 -1 -168 11 -223 46 -219 199 -383
407 -437 100 -26 297 -17 409 20 118 38 179 70 185 98 3 12 27 153 55 312 27
160 52 298 54 308 4 16 -10 17 -193 17 l-198 0 -15 -90 -15 -90 94 0 c72 0 93
-3 93 -14 0 -20 -60 -348 -65 -356 -12 -20 -109 -35 -220 -35 -111 0 -124 2
-177 28 -96 47 -160 136 -195 270 -22 87 -13 303 16 407 67 233 209 395 394
452 97 29 263 22 392 -17 50 -15 97 -29 105 -32 11 -3 21 16 38 75 12 43 22
83 22 89 0 6 -35 22 -77 36 -128 42 -260 58 -389 46z"/>
<path d="M6158 1943 c-53 -5 -47 7 -74 -155 l-18 -107 -70 -3 -70 -3 -18 -60
c-26 -88 -28 -85 57 -85 73 0 75 -1 70 -22 -3 -13 -16 -86 -29 -163 -58 -325
-86 -506 -86 -547 0 -51 34 -124 70 -150 34 -25 124 -39 217 -36 l78 3 17 60
c27 98 29 95 -54 95 -95 0 -122 14 -126 63 -2 20 22 183 52 361 31 177 56 326
56 329 0 4 53 7 119 7 l118 0 7 43 c4 23 9 57 12 75 l6 32 -116 0 c-64 0 -116
3 -116 8 0 4 9 59 20 122 11 63 20 121 20 128 0 12 -34 13 -142 5z"/>
<path d="M7087 1709 c-64 -15 -115 -47 -194 -122 l-76 -72 5 83 5 82 -83 0
c-82 0 -82 0 -88 -27 -3 -16 -42 -235 -86 -488 -44 -253 -83 -475 -86 -492
l-6 -33 99 0 100 0 31 178 c17 97 46 263 64 367 l33 190 40 41 c54 54 122 85
198 91 l63 5 36 104 37 104 -27 -1 c-15 -1 -44 -5 -65 -10z"/>
<path d="M11614 1711 c-64 -16 -130 -56 -202 -125 l-75 -71 7 83 7 82 -85 0
c-47 0 -86 -4 -86 -9 0 -10 -166 -960 -176 -1003 l-6 -28 100 0 100 0 6 28 c3
15 28 158 56 317 73 416 66 390 108 431 54 52 126 86 198 92 l61 4 33 92 c18
50 35 97 37 104 6 13 -32 15 -83 3z"/>
<path d="M4677 1690 c-52 -13 -114 -46 -164 -88 l-43 -34 0 56 0 56 -75 0
c-41 0 -75 -2 -75 -4 0 -2 -40 -235 -90 -517 -49 -282 -90 -514 -90 -516 0 -2
42 -3 94 -3 82 0 95 2 100 18 2 9 33 179 67 377 l62 360 53 52 c80 79 199 105
290 64 54 -24 74 -68 74 -158 0 -53 -73 -528 -106 -685 l-6 -28 96 0 c81 0 95
2 100 18 3 9 28 150 56 312 28 162 60 322 72 355 47 135 119 195 242 202 128
7 182 -44 180 -172 -1 -55 -86 -589 -111 -692 -5 -23 -4 -23 90 -23 82 0 96 2
101 18 3 9 30 163 61 342 72 428 72 511 0 606 -78 102 -299 123 -455 44 -42
-22 -104 -77 -137 -124 l-20 -30 -20 45 c-46 102 -116 148 -235 154 -40 3 -90
0 -111 -5z"/>
<path d="M7595 1690 c-191 -39 -372 -238 -429 -470 -76 -312 35 -563 266 -599
114 -18 248 21 331 98 24 23 47 41 50 41 2 0 8 -12 12 -27 18 -71 73 -109 170
-115 l59 -3 28 75 c15 41 28 76 28 78 0 1 -13 2 -30 2 -44 0 -70 31 -70 83 0
23 29 213 65 422 36 209 65 386 65 393 0 9 -23 12 -83 12 l-84 0 -18 -53 -18
-54 -46 48 c-68 70 -171 94 -296 69z m162 -181 c89 -43 125 -124 126 -279 2
-238 -105 -405 -284 -441 -185 -37 -299 148 -245 400 54 253 238 400 403 320z"/>
<path d="M8730 1685 c-205 -46 -362 -207 -421 -432 -29 -108 -29 -283 -1 -370
28 -89 66 -148 123 -193 66 -52 139 -73 254 -72 92 0 139 9 232 44 l53 19 0
81 c0 72 -2 79 -17 73 -130 -54 -211 -66 -296 -41 -30 9 -69 28 -86 42 -103
87 -120 323 -35 494 40 79 94 132 173 169 49 23 68 26 156 25 86 0 108 -4 157
-26 l57 -26 27 80 c26 79 26 82 8 95 -60 44 -267 64 -384 38z"/>
<path d="M10486 1684 c-248 -60 -436 -323 -436 -610 0 -320 189 -489 505 -453
75 8 153 29 216 59 28 13 39 46 39 124 0 32 -3 37 -17 31 -65 -25 -179 -47
-258 -48 -114 -2 -188 28 -231 92 -28 43 -54 132 -54 189 l0 33 53 -8 c85 -13
256 -7 326 11 83 21 174 70 213 115 114 130 106 337 -17 423 -78 55 -215 72
-339 42z m188 -168 c71 -30 95 -100 57 -174 -33 -64 -95 -102 -196 -121 -105
-20 -255 -6 -255 23 0 33 69 146 119 197 81 81 189 111 275 75z"/>
<path d="M3210 1672 c0 -4 49 -229 108 -499 l108 -492 -47 -83 c-25 -46 -96
-172 -157 -280 l-111 -198 103 0 103 0 426 775 c235 427 427 778 427 780 0 3
-47 5 -104 5 l-105 0 -196 -386 c-109 -212 -199 -384 -201 -382 -2 2 -33 166
-69 363 -36 198 -69 370 -72 383 -5 21 -10 22 -109 22 -57 0 -104 -4 -104 -8z"/>
<path d="M11750 1671 c0 -6 47 -120 105 -254 58 -134 105 -249 105 -255 0 -9
-103 -143 -393 -509 -7 -10 14 -13 100 -13 l109 0 134 200 c74 109 136 198
137 196 2 -2 39 -91 81 -197 l78 -194 107 -3 c59 -1 107 0 107 3 0 3 -54 113
-120 245 -66 132 -120 244 -120 250 0 6 95 127 210 270 116 144 210 263 210
265 0 3 -49 5 -110 5 l-109 0 -137 -201 c-75 -110 -138 -198 -140 -196 -2 2
-35 91 -72 198 l-68 194 -107 3 c-65 2 -107 -1 -107 -7z"/>
</g>
</svg>
