<?xml version="1.0" standalone="no"?>
<!DOCTYPE svg PUBLIC "-//W3C//DTD SVG 20010904//EN"
 "http://www.w3.org/TR/2001/REC-SVG-20010904/DTD/svg10.dtd">
<svg version="1.0" xmlns="http://www.w3.org/2000/svg"
 width="303.000000pt" height="303.000000pt" viewBox="0 0 303.000000 303.000000"
 preserveAspectRatio="xMidYMid meet">

<g transform="translate(0.000000,303.000000) scale(0.100000,-0.100000)"
fill="#000000" stroke="none">
<path d="M1365 2990 c-237 -26 -453 -104 -655 -239 -122 -81 -311 -271 -393
-397 -122 -185 -210 -415 -238 -620 -17 -133 -7 -427 20 -534 87 -349 256
-624 506 -825 197 -158 404 -254 650 -302 123 -23 375 -23 505 1 271 50 524
181 729 380 211 205 333 417 408 706 32 122 36 152 40 307 6 189 -3 279 -44
438 -44 172 -116 327 -222 480 -68 99 -252 285 -346 350 -162 113 -389 208
-570 239 -107 19 -292 26 -390 16z m535 -941 c36 -6 84 -19 106 -29 l42 -18
-16 -66 c-9 -39 -21 -66 -29 -66 -7 0 -48 10 -90 22 -109 31 -246 31 -327 -1
-77 -31 -169 -121 -214 -212 -37 -75 -72 -225 -72 -314 0 -115 40 -234 97
-286 55 -52 110 -72 198 -71 44 0 98 7 120 15 35 12 41 19 48 53 4 21 16 82
26 134 10 52 17 98 14 103 -2 4 -34 7 -70 7 l-66 0 7 62 c4 34 10 66 12 70 3
4 73 8 156 8 l151 0 -7 -32 c-4 -18 -23 -127 -42 -243 -19 -115 -37 -217 -40
-226 -12 -41 -210 -99 -338 -99 -79 0 -184 29 -238 66 -136 94 -197 227 -197
429 0 238 88 440 251 576 147 123 286 154 518 118z"/>
</g>
</svg>
