<svg xmlns="http://www.w3.org/2000/svg" xml:space="preserve" width="1500" height="1500" fill="#fff" stroke="#fff" data-id="lg_OhUWKj2wX1lLXqmQxT" data-version="1"><path fill="#000" stroke="transparent" d="M0 0h1500v1500H0z"/><g data-padding="20"><g transform="translate(-522.559 -536.746)scale(1.66007)"><path fill="#ececec" d="M530.472 724.484a49.831 49.831 0 1 0 0 99.662 49.831 49.831 0 1 0 0-99.662m88.04 81.711q-6.67 0-11.89-3.02-5.22-3.01-8.21-8.7t-2.99-13.67q0-7.85 2.56-14.49 2.57-6.64 7.07-11.57 4.5-4.92 10.42-7.64 5.92-2.71 12.63-2.71 2.76 0 5.64.44 2.89.45 5.48 1.21 2.59.77 4.41 1.74l-2.03 7.05q-3.06-1.27-6.88-2.21-3.82-.93-7.47-.93-5.69 0-10 2.46-4.3 2.46-7.19 6.6t-4.35 9.23-1.46 10.4q0 8.32 3.79 13.41 3.8 5.1 11.82 5.1 2.21 0 5.37-.58 3.17-.57 5.63-2.27l-2.89 4.8 3.91-21.9 2.97 3.56h-11.25l1.27-7.3h15.71l-4.67 26.49q-3.31 1.82-7.71 3.16-4.39 1.34-9.69 1.34m31.58 19.35h-8.23l14.35-25.59-1.02 6.74-9.51-43.29h8.57l6.33 34.47-2.29-.34 17.44-34.13h8.57Zm40.41-20.54h-7.72l7.3-41.6h6.11v9.47Zm25.13 0h-7.73q1.32-7.52 2.17-12.46t1.36-7.92q.5-2.97.72-4.54.21-1.57.27-2.27.07-.7.07-1.17 0-4.28-1.76-5.79-1.77-1.51-4.78-1.51-3.31 0-5.98 1.47-2.68 1.46-4.55 4.6l.09-6.91q3.52-3.61 6.32-4.78t5.9-1.17q2.63 0 5.1.89 2.46.9 4.26 3.49 1.81 2.58 2.4 7.72l1.27 1.19Zm25.12 0h-7.72q1.36-7.81 2.25-12.91.89-5.09 1.4-8.12.51-3.04.74-4.59.24-1.55.3-2.18.06-.64.06-1.06 0-3.44-1.59-5.12t-5.03-1.68q-3.99 0-6.3 1.89t-3.44 4.57q-1.12 2.67-1.55 5.09l-2.46-7.17q1.36-3.44 3.59-5.95 2.22-2.5 5.37-3.86 3.14-1.36 7.25-1.36 5.95 0 9 2.95 3.06 2.95 3.06 8.94 0 .59-.07 1.4-.06.8-.31 2.52-.26 1.72-.79 4.91-.53 3.18-1.44 8.46-.92 5.29-2.32 13.27m27.59.85h-6.36q-4.59 0-6.46-2.34-1.86-2.33-1.86-5.39 0-.25.08-.93.09-.68.45-2.91t1.16-6.96q.81-4.73 2.28-13.01 1.46-8.28 3.75-21.18l7.81-.76-7.55 44.05q0 2.3 1.38 2.8 1.38.51 4.98.51h2.04Zm7.22-36.51h-23.18l1.7-5.94h22.58Zm8.4 35.66h-7.98l7.3-41.6h6.71l-.72 11.55Zm4.88-28.86-.04-5.14q2.5-3.1 4.82-5.11 2.31-2.02 4.58-3.02t4.61-1h1.19l-3.06 8.41h-2.8q-1.7 0-3.57.87-1.86.87-3.41 2.23-1.55 1.35-2.32 2.76m27.46 29.71q-4.2 0-7.32-2.08t-4.82-5.82q-1.69-3.73-1.69-8.74 0-5.05 1.61-9.81 1.61-4.75 4.56-8.55t6.96-6.05 8.77-2.25q2.12 0 4.28.64 2.17.64 3.93 2.44t2.57 5.33l-2.34.25 2.85-7.81h6.79l-5.01 29.46q-.34 1.95-.34 3.31 0 2.04.89 2.8t3.1.76l-2.12 6.12q-2.17 0-3.95-.22-1.78-.21-3.12-1.14-1.34-.94-2.12-2.99-.79-2.06-.87-5.76l1.95 1.91q-1.78 2.64-4.01 4.48-2.23 1.85-4.88 2.78-2.65.94-5.67.94m2.55-6.8q2.42 0 4.78-1.12 2.35-1.12 4.3-3.35 1.96-2.23 3.1-5.52 1.15-3.29 1.15-7.58 0-6.36-2.49-9.25-2.48-2.89-6.17-2.89-3.74 0-6.69 2.55t-4.66 6.71q-1.72 4.16-1.72 9 0 4.75 1.97 8.1t6.43 3.35m44.99 6.8q-5.73 0-9.21-2.38t-5.07-6.41-1.59-8.96q0-4.96 1.48-9.55 1.49-4.58 4.44-8.19 2.95-3.6 7.34-5.71 4.39-2.1 10.17-2.1 3.18 0 6 .66t4.52 1.81l-2.21 6.87q-1.91-1.23-3.99-1.89-2.07-.66-4.32-.66-5.18 0-8.64 2.38t-5.18 6.39-1.72 8.89q0 5.73 2.55 8.94 2.54 3.2 7.89 3.2 4.33 0 9.17-2.55l-.25 6.54q-1.91 1.02-4.76 1.87-2.84.85-6.62.85m26.23-.85h-7.72l11.2-63.67h7.73Zm22.58 0h-9.08l-10.19-22.07 17.23-19.53h9.17l-20.84 21.82.89-5.86Zm12.48-19.02.68-5.39q1.78.68 3.46 1.04 1.67.36 4.01.36 5.09 0 7.91-1.27 2.83-1.27 3.95-3.1 1.13-1.82 1.13-3.52t-.83-2.74-2.23-1.53-3.06-.49q-2.84 0-5.41 1.47-2.57 1.46-4.64 4.56-2.08 3.1-3.49 8.02l-.04.43q-.46 6.07.85 9.38 1.32 3.31 3.93 4.58t5.92 1.27q2.5 0 5.62-.59t5.84-1.87l-.34 6.03q-2.42 1.4-5.75 2.31-3.33.92-7.41.92-5.77 0-9.53-2.4-3.75-2.4-5.6-6.47-1.85-4.08-1.85-9.13 0-4.92 1.62-9.47 1.61-4.54 4.62-8.1 3.02-3.57 7.18-5.65t9.25-2.08q6.07 0 9.23 2.95t3.16 7.66q0 2.34-.93 4.8-.94 2.46-3.14 4.56-2.21 2.1-5.94 3.38-3.74 1.27-9.34 1.27-2.51 0-4.95-.32t-3.88-.87m39.05 19.02h-7.98l7.3-41.6h6.7l-.72 11.55Zm4.88-28.86-.04-5.14q2.5-3.1 4.81-5.11 2.32-2.02 4.59-3.02t4.6-1h1.19l-3.06 8.41h-2.8q-1.69 0-3.56.87t-3.42 2.23q-1.55 1.35-2.31 2.76m44.18 28.86h-8.83l-6.7-16.85-2.72-3.4-9.17-21.35h8.83l5.82 16.77 2.29 4.03Zm-26.14 0h-8.83l17.32-21.99 3.18 4.59Zm33.19-41.6-18.13 22.5-2.71-5.22 11.76-17.28Z"/><rect width="465.234" height="99.44" x="128.065" y="324.595" fill="none" rx="0" ry="0" transform="translate(463.87 401.93)"/><path fill="#000" d="M532.702 796.735q-4.39 0-7.83-1.99-3.44-1.98-5.41-5.73t-1.97-9.01q0-5.18 1.69-9.55 1.69-4.38 4.66-7.63 2.96-3.24 6.86-5.03 3.91-1.79 8.33-1.79 1.82 0 3.72.29 1.9.3 3.61.8 1.7.5 2.91 1.15l-1.35 4.64q-2.01-.84-4.53-1.46-2.52-.61-4.92-.61-3.75 0-6.59 1.62t-4.74 4.35-2.87 6.09q-.96 3.35-.96 6.85 0 5.48 2.5 8.84t7.79 3.36q1.45 0 3.54-.38 2.08-.38 3.71-1.5l-1.91 3.16 2.58-14.43 1.96 2.35h-7.42l.84-4.81h10.35l-3.08 17.45q-2.18 1.21-5.07 2.09-2.9.88-6.4.88"/><rect width="37.758" height="65.54" x="341.803" y="341.545" fill="none" rx="0" ry="0" transform="translate(172.66 402.86)"/></g><path fill="transparent" stroke="transparent" stroke-width="1.72" d="M257.748 663.335H1250v173.687H257.748z"/></g></svg>